<svg viewBox="0 0 40 37.3139" xmlns="http://www.w3.org/2000/svg" xmlns:xlink="http://www.w3.org/1999/xlink" width="40.000000" height="37.313873" fill="none" customFrame="#000000">
	<path id="Vector" d="M36.8986 19.3915L36.8986 1.17666C36.8986 0.52683 36.3718 0 35.722 0L4.19674 0C3.54691 0 3.02008 0.52683 3.02008 1.17666L3.02008 20.8436C2.45246 20.9263 1.89755 21.1466 1.40664 21.5111C-0.140899 22.6084 -0.506919 25.0642 0.789368 26.5787L6.08928 33.0038C9.36996 36.8434 12.855 37.3138 18.0359 37.3138C22.4819 37.3138 24.4696 37.3335 28.3443 36.4506L32.1173 35.5481C32.7291 36.4025 33.7003 36.9559 34.7922 36.9559L36.6508 36.9559C38.4975 36.9559 40 35.3731 40 33.4276L40 22.9092C40.0001 21.0515 38.63 19.5257 36.8986 19.3915ZM31.6098 21.812L30.042 21.0157C27.4642 19.7145 24.4839 19.6664 21.8655 20.8837C21.1511 21.1647 19.5929 22.1075 18.7847 22.0759L13.3445 22.0759C11.54 22.0759 10.0718 23.544 10.0718 25.3486L10.0718 26.2067C10.0617 26.1961 10.0511 26.1859 10.0411 26.1751L6.15619 21.9582C5.9211 21.703 5.65697 21.4895 5.37348 21.3182L5.37348 9.64422L15.0027 9.64422L15.0027 13.9575C15.0027 14.6074 15.5295 15.1342 16.1794 15.1342L23.6042 15.1342C24.254 15.1342 24.7808 14.6074 24.7808 13.9575L24.7808 9.64422L34.5454 9.64422L34.5454 19.3914C33.1706 19.4976 32.0242 20.4812 31.6098 21.812ZM17.356 9.64422L22.4274 9.64422L22.4274 12.7809L17.356 12.7809L17.356 9.64422ZM34.5453 7.2909L24.7808 7.2909L24.7808 2.35332L34.5454 2.35332L34.5454 7.2909L34.5453 7.2909ZM22.4275 2.35332L22.4275 7.29098L17.356 7.29098L17.356 2.35332L22.4275 2.35332ZM15.0026 2.35332L15.0026 7.29098L5.3734 7.29098L5.3734 2.35332L15.0026 2.35332ZM27.7982 34.1614C24.2188 34.9812 22.0631 34.948 18.0781 34.948C13.2146 34.948 10.8646 34.8694 7.90479 31.5062L2.60488 25.0811C1.683 23.8807 3.35276 22.4636 4.4254 23.5526L8.31034 27.7696C9.3371 28.853 10.6291 29.4492 12.2216 29.4843L22.9926 29.4843C23.6425 29.4843 24.1693 28.9574 24.1693 28.3076C24.1693 27.6578 23.6425 27.1309 22.9926 27.1309L12.425 27.1309L12.425 25.3485C12.425 24.8416 12.8374 24.4291 13.3444 24.4291L18.7847 24.4291C20.0103 24.5169 21.7793 23.4935 22.8575 23.0176C24.8186 22.1057 27.0508 22.1418 28.9789 23.115L31.4432 24.3667L31.4432 33.2895L27.7982 34.1614ZM37.6467 33.4276C37.6467 34.0754 37.2 34.6025 36.6509 34.6025L34.7922 34.6025C34.2431 34.6025 33.7965 34.0754 33.7965 33.4276L33.7965 22.9092C33.7965 22.2613 34.2432 21.7342 34.7922 21.7342L36.6509 21.7342C37.2 21.7342 37.6467 22.2612 37.6467 22.9092L37.6467 33.4276Z" fill="rgb(58,58,58)" fill-rule="nonzero" />
</svg>
