<svg viewBox="0 0 35.2941 40" xmlns="http://www.w3.org/2000/svg" xmlns:xlink="http://www.w3.org/1999/xlink" width="35.294067" height="40.000000" fill="none" customFrame="#000000">
	<path id="Vector" d="M34.1095 15.9752C33.8466 7.12165 26.5632 0 17.6471 0C8.7309 0 1.44753 7.12165 1.18455 15.9752L0 17.1598L0 25.1932L1.17647 26.3696L1.17647 31.8431C1.17647 35.0435 3.78008 37.6471 6.98039 37.6471L8.43765 37.6471C8.9233 39.0164 10.231 40 11.7647 40L14.1176 40C15.6524 40 16.9608 39.015 17.4457 37.6442C17.5129 37.6454 17.5802 37.6471 17.6471 37.6471C23.3285 37.6471 28.0822 33.5987 29.1752 28.2353L32.252 28.2353L35.2941 25.1932L35.2941 17.1598L34.1095 15.9752ZM17.6471 2.35294C24.6299 2.35294 30.444 7.44933 31.5675 14.1176L29.1752 14.1176C28.0822 8.7542 23.3285 4.70588 17.6471 4.70588C11.9656 4.70588 7.21192 8.7542 6.1189 14.1176L3.72659 14.1176C4.85012 7.44933 10.6642 2.35294 17.6471 2.35294ZM26.761 14.1176C22.958 14.1063 20.2717 14.3379 18.0569 11.1004L16.9815 9.52839L16.0573 11.1938C14.7106 13.6204 12.897 14.1176 10.5882 14.1176L8.5331 14.1176C9.58055 10.0629 13.2696 7.05882 17.6471 7.05882C22.0246 7.05882 25.7136 10.0629 26.761 14.1176ZM5.88235 25.8824L4.01671 25.8824L2.35294 24.2186L2.35294 18.1344L4.01671 16.4706L5.88235 16.4706L5.88235 25.8824ZM3.52941 31.8431L3.52941 28.2353L6.11663 28.2353C6.55953 30.4294 7.61922 32.4435 9.1891 34.0611C8.86 34.4127 8.60188 34.8311 8.43765 35.2941L6.98039 35.2941C5.07749 35.2941 3.52941 33.746 3.52941 31.8431ZM14.1176 37.6471L11.7647 37.6471C11.1159 37.6471 10.5882 37.1194 10.5882 36.4706C10.5882 35.8219 11.1159 35.2941 11.7647 35.2941L14.1176 35.2941C14.7664 35.2941 15.2941 35.8219 15.2941 36.4706C15.2941 37.1194 14.7664 37.6471 14.1176 37.6471ZM27.0588 25.8824C27.0588 31.072 22.8367 35.2941 17.6471 35.2941C17.5796 35.2941 17.5116 35.2928 17.4437 35.2912C16.9573 33.9234 15.6503 32.9412 14.1176 32.9412C11.702 32.9465 11.7405 32.9291 11.4394 32.9568C9.39686 31.1665 8.2353 28.6166 8.2353 25.8824L8.2353 16.4706L10.5882 16.4706C12.6704 16.4706 15.206 16.1273 17.1689 13.7384C19.7587 16.4524 22.9235 16.4706 25.7646 16.4706L27.0588 16.4706L27.0588 25.8824ZM32.9412 24.2186L31.2774 25.8824L29.4118 25.8824L29.4118 16.4706L31.2774 16.4706L32.9412 18.1344L32.9412 24.2186Z" fill="rgb(58,58,58)" fill-rule="nonzero" />
</svg>
