<svg viewBox="0 0 15.8333 18.011" xmlns="http://www.w3.org/2000/svg" xmlns:xlink="http://www.w3.org/1999/xlink" width="15.833334" height="18.010986" fill="none" customFrame="#000000">
	<path id="Subtract" d="M8.89071 17.7083C11.0064 16.2646 15.8333 12.4718 15.8333 7.91691C15.8333 3.54466 12.2889 0.000244141 7.91667 0.000244141C3.54441 0.000244141 1.90735e-06 3.54466 1.90735e-06 7.91691C1.90735e-06 12.4718 4.82692 16.2646 6.94262 17.7083C7.53426 18.112 8.29908 18.112 8.89071 17.7083ZM7.91667 10.4169C9.29738 10.4169 10.4167 9.29762 10.4167 7.91691C10.4167 6.5362 9.29738 5.41691 7.91667 5.41691C6.53596 5.41691 5.41667 6.5362 5.41667 7.91691C5.41667 9.29762 6.53596 10.4169 7.91667 10.4169Z" fill="rgb(137,137,137)" fill-rule="evenodd" />
</svg>
