<svg viewBox="0 0 15.8333 15.8333" xmlns="http://www.w3.org/2000/svg" xmlns:xlink="http://www.w3.org/1999/xlink" width="15.833334" height="15.833252" fill="none" customFrame="#000000">
	<path id="Vector" d="M11.3474 10.9838L10.8319 11.7571C10.729 11.9114 10.5929 12.0431 10.4136 12.0905C9.82613 12.2457 8.26656 12.3158 5.89217 9.94143C3.51777 7.56704 3.58785 6.00745 3.74308 5.42001C3.79046 5.24067 3.92216 5.10459 4.0765 5.0017L4.84975 4.4862C5.42545 4.1024 5.58102 3.32457 5.19722 2.74886L3.73681 0.558252C3.40181 0.0557546 2.756 -0.136226 2.2009 0.101672L1.54211 0.384013C1.04165 0.598496 0.633409 0.983425 0.389908 1.47043C0.186472 1.8773 0.0287938 2.30576 0.00743 2.76016C-0.0598958 4.19214 0.254101 7.72011 4.1838 11.6498C8.11349 15.5795 11.6414 15.8935 13.0734 15.8261C13.5278 15.8048 13.9563 15.6471 14.3632 15.4437C14.8502 15.2002 15.2351 14.7919 15.4496 14.2915L15.7319 13.6327C15.9698 13.0776 15.7778 12.4318 15.2753 12.0968L13.0847 10.6364C12.509 10.2526 11.7312 10.4081 11.3474 10.9838Z" fill="rgb(137,137,137)" fill-rule="nonzero" />
</svg>
