<svg viewBox="0 0 35.1812 40" xmlns="http://www.w3.org/2000/svg" xmlns:xlink="http://www.w3.org/1999/xlink" width="35.181168" height="40.000000" fill="none" customFrame="#000000">
	<path id="Vector" d="M30.4936 2.34375C29.6401 2.34375 28.8399 2.57414 28.1498 2.97437L28.1498 1.17188C28.1498 0.524687 27.6252 0 26.978 0L8.22797 0C7.5807 0 7.05602 0.524687 7.05602 1.17188L7.05602 2.98867C6.36047 2.57953 5.55117 2.34375 4.6875 2.34375C2.10281 2.34375 0 4.44656 0 7.03125C0 9.00273 0.584219 10.9077 1.68945 12.5402C3.57102 15.3193 5.89125 16.0405 7.81117 16.8084C8.9182 19.5653 11.1569 21.7502 13.9495 22.7846L13.0853 28.2812L12.9155 28.2812C10.977 28.2812 9.39984 29.8584 9.39984 31.7969L9.39984 37.6562L8.22797 37.6562C7.58078 37.6562 7.05609 38.1809 7.05609 38.8281C7.05609 39.4753 7.58078 40 8.22797 40L26.978 40C27.6252 40 28.1498 39.4753 28.1498 38.8281C28.1498 38.1809 27.6252 37.6562 26.978 37.6562L25.8061 37.6562L25.8061 31.7969C25.8061 29.8584 24.229 28.2812 22.2905 28.2812L22.1206 28.2812L21.2566 22.7847C24.0532 21.7487 26.2944 19.5591 27.3998 16.7966C29.2134 16.0711 31.5909 15.3478 33.4917 12.5402C34.597 10.9077 35.1812 9.00266 35.1812 7.03125C35.1811 4.44656 33.0783 2.34375 30.4936 2.34375ZM7.04734 13.9787C4.19 12.8357 2.34375 10.1087 2.34375 7.03125C2.34375 5.73891 3.39516 4.6875 4.6875 4.6875C5.97984 4.6875 7.03125 5.73891 7.03125 7.03125C7.03125 7.11367 7.03992 7.19398 7.05609 7.27156L7.05609 12.8906C7.05609 13.2673 7.07633 13.6392 7.11508 14.0058L7.04734 13.9787ZM23.4623 37.6562L11.7436 37.6562L11.7436 35.3125L23.4623 35.3125L23.4623 37.6562ZM22.2905 30.625C22.9366 30.625 23.4623 31.1507 23.4623 31.7969L23.4623 32.9688L11.7436 32.9688L11.7436 31.7969C11.7436 31.1507 12.2693 30.625 12.9155 30.625C13.5512 30.625 20.7995 30.625 22.2905 30.625ZM15.4578 28.2812L16.2333 23.3487C16.6817 23.4071 17.1388 23.4375 17.603 23.4375C18.0671 23.4375 18.5242 23.407 18.9727 23.3487L19.7481 28.2812L15.4578 28.2812ZM25.8061 12.8906C25.8061 17.4138 22.1262 21.0938 17.603 21.0938C13.0798 21.0938 9.39984 17.4138 9.39984 12.8906L9.39984 7.03125L25.8061 7.03125L25.8061 12.8906ZM25.8061 4.6875L9.39984 4.6875L9.39984 2.34375L25.8061 2.34375L25.8061 4.6875ZM28.1337 13.9787L28.092 13.9953C28.13 13.6322 28.1498 13.2637 28.1498 12.8906L28.1498 7.03125C28.1498 5.73891 29.2013 4.6875 30.4936 4.6875C31.7859 4.6875 32.8373 5.73891 32.8373 7.03125C32.8373 10.1087 30.9911 12.8358 28.1337 13.9787Z" fill="rgb(58,58,58)" fill-rule="nonzero" />
</svg>
