<svg viewBox="0 0 8.8584 15.8074" xmlns="http://www.w3.org/2000/svg" xmlns:xlink="http://www.w3.org/1999/xlink" width="8.858398" height="15.807373" fill="none" customFrame="#000000">
	<path id="Line" d="M1.54008 0.26729C1.18861 -0.0841814 0.618762 -0.0841814 0.26729 0.26729C-0.0841814 0.618762 -0.0841814 1.18861 0.26729 1.54008L1.54008 0.26729ZM7.90369 7.90369L8.54008 8.54008C8.89155 8.18861 8.89155 7.61876 8.54008 7.26729L7.90369 7.90369ZM0.26729 14.2673C-0.0841814 14.6188 -0.0841814 15.1886 0.26729 15.5401C0.618762 15.8916 1.18861 15.8916 1.54008 15.5401L0.26729 14.2673ZM0.26729 1.54008L7.26729 8.54008L8.54008 7.26729L1.54008 0.26729L0.26729 1.54008ZM7.26729 7.26729L0.26729 14.2673L1.54008 15.5401L8.54008 8.54008L7.26729 7.26729Z" stroke="rgb(232,159,113)" stroke-linecap="round" stroke-linejoin="round" stroke-width="1.79999995" />
</svg>
