<svg viewBox="0 0 24 24" xmlns="http://www.w3.org/2000/svg" xmlns:xlink="http://www.w3.org/1999/xlink" width="24.000000" height="24.000000" fill="none" customFrame="#000000">
	<rect id="Right 24px" width="24.000000" height="24.000000" x="0.000000" y="0.000000" fill="rgb(255,255,255)" fill-opacity="0" />
	<path id="Line" d="M9.6364 4.3636C9.28492 4.01213 8.71508 4.01213 8.3636 4.3636C8.01213 4.71508 8.01213 5.28492 8.3636 5.6364L9.6364 4.3636ZM16 12L16.6364 12.6364C16.9879 12.2849 16.9879 11.7151 16.6364 11.3636L16 12ZM8.3636 18.3636C8.01213 18.7151 8.01213 19.2849 8.3636 19.6364C8.71508 19.9879 9.28492 19.9879 9.6364 19.6364L8.3636 18.3636ZM8.3636 5.6364L15.3636 12.6364L16.6364 11.3636L9.6364 4.3636L8.3636 5.6364ZM15.3636 11.3636L8.3636 18.3636L9.6364 19.6364L16.6364 12.6364L15.3636 11.3636Z" stroke="rgb(255,255,255)" stroke-linecap="round" stroke-linejoin="round" stroke-width="1.79999995" />
</svg>
